<?xml version="1.0" encoding="UTF-8"?>
<svg id="Layer_1" data-name="Layer 1" xmlns="http://www.w3.org/2000/svg" viewBox="0 0 53.34 56.64">
  <defs>
    <style>
      .cls-1 {
        font-family: Arial-Black, 'Arial Black';
        font-size: 8px;
        font-weight: 800;
      }

      .cls-2 {
        stroke-width: 0px;
      }
    </style>
  </defs>
  <text class="cls-1" transform="translate(0 54.18)"><tspan x="0" y="0">YRS OF EXP</tspan></text>
  <g>
    <path class="cls-2" d="M5.24,0h24.33v8.18H13.09l-.88,5.54c1.14-.54,2.27-.94,3.38-1.21,1.12-.27,2.22-.4,3.31-.4,3.69,0,6.68,1.12,8.98,3.35,2.3,2.23,3.45,5.04,3.45,8.43,0,2.38-.59,4.67-1.77,6.87-1.18,2.2-2.86,3.87-5.03,5.03-2.17,1.16-4.95,1.74-8.34,1.74-2.43,0-4.52-.23-6.25-.69s-3.21-1.15-4.43-2.06c-1.22-.91-2.2-1.95-2.96-3.11s-1.38-2.6-1.89-4.33l10.37-1.13c.25,1.66.84,2.92,1.76,3.79.92.86,2.02,1.3,3.3,1.3,1.43,0,2.6-.54,3.54-1.62.93-1.08,1.4-2.7,1.4-4.84s-.47-3.81-1.41-4.83c-.94-1.02-2.19-1.54-3.75-1.54-.99,0-1.95.24-2.87.73-.69.35-1.44.99-2.26,1.91l-8.73-1.26L5.24,0Z"/>
    <path class="cls-2" d="M32.81,10.88h6.98V3.87h5.88v7.01h7.01v5.88h-7.01v6.98h-5.88v-6.98h-6.98v-5.88Z"/>
  </g>
</svg>