<?xml version="1.0" encoding="UTF-8"?>
<svg id="Layer_1" data-name="Layer 1" xmlns="http://www.w3.org/2000/svg" viewBox="0 0 62.12 57.09">
  <defs>
    <style>
      .cls-1 {
        letter-spacing: -.09em;
      }

      .cls-2 {
        font-family: Arial-Black, 'Arial Black';
        font-size: 8px;
        font-weight: 800;
      }

      .cls-3 {
        stroke-width: 0px;
      }
    </style>
  </defs>
  <text class="cls-2" transform="translate(4.99 54.64)"><tspan x="0" y="0">B</tspan><tspan class="cls-1" x="6.22" y="0">F</tspan><tspan x="10.8" y="0">A DEGREE</tspan></text>
  <g>
    <g id="qxmGR4">
      <path class="cls-3" d="M0,10.78c4.95-1.69,9.68-3.29,14.41-4.91,5.27-1.81,10.54-3.62,15.8-5.44,1.04-.36,2.04-.63,3.17-.22,9.3,3.43,18.61,6.81,27.91,10.21.28.1.54.3.83.47-.33,1.43-1.38,1.16-2.09,1.45-2.83,1.13-4.06,5.4-2.15,8.31,1.14,1.73,1.5,3.2.29,4.98-.58.85-2.78.55-3.79-.89-.79-1.11-.52-2.5.37-3.55.58-.69.97-1.42.96-2.45-.02-4.18.37-5.21-3.5-3.64-5.75,2.33-4.61.65-4.76,7.62-.04,1.97,0,3.94-.03,5.91-.03,1.38-.47,1.89-1.61,1.13-6.87-4.59-14.23-4.25-21.65-3-1.92.32-3.77,1.06-5.36,2.49-1.46,1.32-2.17,1.12-2.11-1.28.06-2.34-.18-4.72.05-7.03.34-3.32-.8-4.64-3.38-5.27-3.92-.97-7.77-2.37-11.66-3.59-.51-.16-1.08-.15-1.69-1.29Z"/>
    </g>
    <ellipse class="cls-3" cx="56.44" cy="23.15" rx="2.74" ry="3.33"/>
    <path class="cls-3" d="M55.48,26.26l-1.62,10.24c-.09.59.19,1.17.66,1.35l1.11.43c.49.19,1.04.04,1.41-.39l.55-.62c.13-.14.31-.17.46-.08,0,0,.76,1.12,1.04,1.17s.56.15.56-.15-2.24-13.16-2.24-13.16l-1.95,1.21Z"/>
  </g>
</svg>