<?xml version="1.0" encoding="UTF-8"?>
<svg id="Layer_1" data-name="Layer 1" xmlns="http://www.w3.org/2000/svg" viewBox="0 0 1184.48 1184.48">
  <defs>
    <style>
      .cls-1 {
        fill: #231f20;
      }

      .cls-1, .cls-2 {
        stroke-width: 0px;
      }

      .cls-2 {
        fill: #fff;
      }
    </style>
  </defs>
  <circle class="cls-1" cx="592.24" cy="592.24" r="592.24"/>
  <g>
    <g>
      <path class="cls-2" d="M456.47,720.55c-24.55-4.72-54.14-6.92-88.77-6.92s-64.21,2.2-88.77,6.92c-2.83.63-5.04.94-7.24.94-4.72,0-8.18-1.26-10.7-4.09-2.83-2.83-4.09-5.98-4.09-9.44,0-.94.31-3.15.94-5.98.31-2.83,2.83-5.04,6.92-6.93,7.55-3.15,14.48-10.7,20.77-22.66,5.98-11.65,9.76-25.81,10.7-42.18v-123.08c-.94-16.37-4.72-30.53-10.7-42.49-6.3-11.96-13.22-19.52-20.77-22.66-5.35-2.2-7.87-6.61-7.87-12.59,0-3.46,1.26-6.61,4.09-9.44,2.52-2.83,5.98-4.09,10.7-4.09,2.2,0,4.72.31,7.55.94,2.83.63,6.3.94,9.76.94,7.87,0,17.94-1.89,29.9-5.67,11.96-3.46,24.87-8.81,39.03-15.42,14.17-6.61,25.81-12.59,35.57-18.26l14.17-8.18c4.41-2.83,8.81-4.41,12.91-4.41h4.41c2.2.31,5.04,2.83,8.5,7.55,3.15,5.04,4.72,12.91,4.72,23.92,7.24-9.76,17.31-17.63,30.53-22.98,13.22-5.35,28.02-8.18,44.7-8.18,14.48,0,30.22.94,47.53,2.83,17.31,1.89,33.68,6.3,49.42,13.22,15.42,7.24,28.64,17.94,39.35,32.74l.32,1.26c0,3.46-5.35,9.13-16.37,16.68-11.02,7.87-24.55,15.42-41.24,22.66-16.68,7.24-31.48,11.96-44.7,14.16-2.83.31-5.35.63-7.55.63-8.81,0-13.85-3.15-15.11-9.76-4.72-36.83-18.26-55.09-40.92-55.09-12.28,0-22.66,6.93-31.48,20.46-8.81,13.54-13.22,32.74-13.22,56.97v147c.94,16.37,4.72,30.53,11.02,42.49,5.98,11.96,12.91,19.52,20.46,22.66,5.35,2.2,7.87,6.61,7.87,12.91,0,3.46-1.26,6.61-3.78,9.44-2.83,2.83-6.3,4.09-11.02,4.09-2.2,0-4.72-.31-7.55-.94Z"/>
      <path class="cls-2" d="M942.27,817.02c-24.55-4.72-54.14-6.92-88.77-6.92s-64.21,2.2-88.77,6.92c-2.83.63-5.04.94-7.24.94-4.72,0-8.18-1.26-10.7-4.09-2.83-2.83-4.09-5.98-4.09-9.44,0-.94.32-2.83.94-5.67.32-2.83,2.83-5.35,6.93-7.24,7.55-3.15,14.48-10.7,20.77-22.66,5.98-11.65,9.76-25.81,10.7-42.18v-141.96c0-20.15-1.89-36.2-5.67-48.48-3.78-12.28-8.81-21.09-15.11-26.44-6.61-5.35-13.85-7.87-21.72-7.87-12.28,0-22.66,6.93-31.48,20.46-8.81,13.54-13.22,32.74-13.22,56.97v147c.94,16.37,4.72,30.53,11.02,42.49,5.98,11.96,12.91,19.52,20.46,22.66,5.35,2.2,7.87,6.61,7.87,12.91,0,3.46-1.26,6.61-3.78,9.44-2.83,2.83-6.3,4.09-11.02,4.09-2.2,0-4.72-.31-7.55-.94-24.55-4.72-54.14-6.92-88.77-6.92s-63.9,2.2-88.45,6.92c-2.83.63-5.35.94-7.55.94-4.72,0-8.18-1.26-10.7-4.09-2.83-2.83-4.09-5.98-4.09-9.44,0-.94.31-3.15.94-5.98.31-2.83,2.83-5.04,6.92-6.93,7.55-3.15,14.48-10.7,20.77-22.66,5.98-11.65,9.76-25.81,10.7-42.18v-123.08c-.94-16.37-4.72-30.53-10.7-42.5-6.3-11.96-13.22-19.52-20.77-22.66-5.35-2.2-7.87-6.61-7.87-12.59,0-3.46,1.26-6.61,4.09-9.44,2.52-2.83,5.98-4.09,10.7-4.09,2.2,0,5.04.31,7.87.94,2.83.63,6.3.94,9.76.94,7.87,0,17.63-1.89,29.9-5.67,11.96-3.46,24.87-8.81,39.03-15.42,13.85-6.61,25.5-12.59,35.25-18.26l14.16-8.18c4.41-2.83,8.81-4.41,12.91-4.41h4.41c2.52.31,5.35,2.83,8.81,7.55,3.15,5.04,4.72,12.91,4.72,23.92,6.92-9.76,17-17.63,30.22-22.98s28.01-8.18,44.7-8.18c12.28,0,25.5.63,39.66,1.57,32.42,2.83,58.86,12.28,79.32,28.33,24.87,19.83,37.46,50.99,37.46,94.12v139.76c.94,16.37,4.72,30.53,11.02,42.49,5.98,11.96,12.91,19.52,20.46,22.66,5.35,2.2,7.87,6.61,7.87,12.91,0,3.46-1.26,6.61-3.78,9.44-2.83,2.83-6.3,4.09-11.02,4.09-2.2,0-4.72-.31-7.55-.94Z"/>
    </g>
    <g>
      <path class="cls-2" d="M158.79,354.1c0,8.65,3.17,14.99,9.3,19.01l56.79,27.87c4.02-15.41,5.91-28.29,5.91-38.64l-.21-4.64c-.63-11.2-3.16-19.85-7.18-25.97-4.02-5.91-8.44-9.93-13.72-12.25-5.28-2.11-9.93-3.16-14.15-3.16-8.23,0-15.2,2.32-20.9,6.97-5.7,4.64-9.93,9.71-12.25,15.41-2.32,5.7-3.6,10.76-3.6,15.41Z"/>
      <path class="cls-2" d="M153.5,446.69c.56-.23,1.11-.47,1.64-.71,20.09-9.08,38.29-9.56,59.24-12.49,1.21-.17,1.69-1.71.76-2.51-11.09-9.55-24.91-18.16-39.02-21.7-14.43-3.62-33.79-.44-42.92,12.84-12.35,17.97,1.32,32.38,20.29,24.57Z"/>
    </g>
    <g>
      <path class="cls-2" d="M1049.44,650.69c0,8.65-3.17,14.99-9.3,19.01l-56.79,27.87c-4.02-15.41-5.91-28.29-5.91-38.64l.21-4.64c.63-11.2,3.16-19.85,7.18-25.97,4.02-5.91,8.44-9.93,13.72-12.25,5.28-2.11,9.93-3.16,14.15-3.16,8.23,0,15.2,2.32,20.9,6.97,5.7,4.64,9.93,9.71,12.25,15.41,2.32,5.7,3.6,10.76,3.6,15.41Z"/>
      <path class="cls-2" d="M1054.73,743.28c-.56-.23-1.11-.47-1.64-.71-20.09-9.08-38.29-9.56-59.24-12.49-1.21-.17-1.69-1.71-.76-2.51,11.09-9.55,24.91-18.16,39.02-21.7,14.43-3.62,33.79-.44,42.92,12.84,12.35,17.97-1.32,32.38-20.29,24.57Z"/>
    </g>
  </g>
</svg>