<?xml version="1.0" encoding="UTF-8"?>
<svg id="Layer_1" data-name="Layer 1" xmlns="http://www.w3.org/2000/svg" viewBox="0 0 2075.44 236.48">
  <defs>
    <style>
      .cls-1 {
        fill: #231f20;
        stroke-width: 0px;
      }
    </style>
  </defs>
  <path class="cls-1" d="M2051.59,34.71c0,7.95-2.5,13.76-7.32,17.46l-44.7,25.6c-3.17-14.15-4.66-25.99-4.66-35.5l.17-4.25c.5-10.28,2.48-18.24,5.65-23.86,3.16-5.43,6.65-9.12,10.8-11.25,4.16-1.94,7.82-2.91,11.13-2.91,6.48,0,11.97,2.13,16.45,6.4,4.49,4.26,7.82,8.91,9.64,14.16,1.83,5.24,2.83,9.88,2.83,14.15"/>
  <path class="cls-1" d="M2055.75,119.75c-.44-.21-.87-.43-1.29-.65-15.81-8.34-30.13-8.77-46.63-11.47-.95-.16-1.33-1.57-.6-2.31,8.73-8.77,19.6-16.68,30.71-19.93,11.36-3.32,26.6-.41,33.78,11.79,9.71,16.51-1.04,29.74-15.98,22.57"/>
  <path class="cls-1" d="M23.85,34.71c0,7.95,2.5,13.76,7.32,17.46l44.7,25.6c3.17-14.15,4.66-25.99,4.66-35.5l-.17-4.25c-.5-10.28-2.48-18.24-5.65-23.86-3.16-5.43-6.65-9.12-10.8-11.25-4.16-1.94-7.82-2.91-11.13-2.91-6.48,0-11.97,2.13-16.45,6.4-4.49,4.26-7.82,8.91-9.64,14.16-1.82,5.24-2.83,9.88-2.83,14.15"/>
  <path class="cls-1" d="M19.69,119.75c.44-.21.87-.43,1.29-.65,15.81-8.34,30.13-8.77,46.63-11.47.95-.16,1.33-1.57.6-2.31-8.73-8.77-19.6-16.68-30.71-19.93-11.36-3.32-26.6-.41-33.78,11.79-9.71,16.51,1.04,29.74,15.98,22.57"/>
  <path class="cls-1" d="M1999.37,236.48c2.06,0,3.57-.55,4.8-1.78,1.09-1.24,1.64-2.6,1.64-4.11,0-2.74-1.09-4.66-3.43-5.62-3.29-1.37-6.3-4.66-8.91-9.87-2.74-5.21-4.39-11.38-4.8-18.51v-60.86c0-18.78-5.48-32.36-16.31-40.99-8.91-6.99-20.43-11.1-34.55-12.34-6.17-.41-11.93-.69-17.27-.69-7.26,0-13.71,1.24-19.47,3.57-5.76,2.33-10.14,5.76-13.16,10.01,0-4.8-.68-8.23-2.05-10.42-1.51-2.06-2.74-3.15-3.84-3.28h-1.92c-1.78,0-3.7.68-5.62,1.92l-6.16,3.57c-4.25,2.47-9.33,5.07-15.36,7.95-6.17,2.88-11.79,5.21-17,6.72-5.35,1.64-9.6,2.46-13.02,2.46-1.51,0-3.02-.13-4.25-.41s-2.46-.41-3.43-.41c-2.06,0-3.57.55-4.66,1.78-1.24,1.24-1.78,2.6-1.78,4.11,0,2.6,1.1,4.53,3.43,5.48,3.29,1.38,6.31,4.66,9.05,9.87,2.6,5.22,4.25,11.39,4.66,18.51v53.61c-.41,7.13-2.06,13.29-4.66,18.37-2.74,5.21-5.76,8.5-9.05,9.87-1.78.83-2.88,1.78-3.01,3.02-.28,1.24-.41,2.2-.41,2.6,0,1.51.55,2.88,1.78,4.11,1.1,1.24,2.6,1.78,4.66,1.78.96,0,2.06-.14,3.29-.41,10.69-2.06,23.58-3.01,38.52-3.01s27.96.95,38.66,3.01c1.24.27,2.33.41,3.29.41,2.05,0,3.56-.55,4.79-1.78,1.1-1.24,1.64-2.6,1.64-4.11,0-2.74-1.09-4.66-3.43-5.62-3.29-1.37-6.3-4.66-8.91-9.87-2.74-5.21-4.39-11.38-4.8-18.51v-64.02c0-10.56,1.92-18.92,5.76-24.81,3.84-5.9,8.37-8.91,13.72-8.91,3.43,0,6.58,1.09,9.45,3.43,2.74,2.33,4.93,6.17,6.58,11.52,1.64,5.34,2.46,12.33,2.46,21.11v61.83c-.41,7.13-2.06,13.29-4.66,18.37-2.74,5.21-5.76,8.5-9.05,9.87-1.78.83-2.88,1.92-3.02,3.16-.27,1.23-.41,2.06-.41,2.46,0,1.51.55,2.88,1.78,4.11,1.1,1.24,2.6,1.78,4.66,1.78.96,0,1.92-.14,3.15-.41,10.69-2.06,23.58-3.01,38.66-3.01s27.96.95,38.66,3.01c1.23.27,2.33.41,3.28.41M1697.9,219.75c-3.57,0-6.85-1.09-9.74-3.15-3.01-2.06-5.34-5.9-7.12-11.65-1.78-5.76-2.74-14.26-2.74-25.36s.96-19.74,2.74-25.91,4.11-10.42,7.12-12.75c2.88-2.33,6.17-3.57,9.74-3.57s6.86,1.24,9.74,3.57c2.88,2.33,5.35,6.58,7.12,12.75,1.78,6.17,2.61,14.8,2.61,25.91s-.83,19.6-2.61,25.36c-1.78,5.76-4.25,9.6-7.12,11.65s-6.17,3.15-9.74,3.15M1791.26,236.34c2.19,0,3.84-.55,5.07-1.78,1.1-1.24,1.64-2.61,1.64-4.39,0-2.47-1.1-4.25-3.29-5.22-3.29-1.37-6.3-4.66-8.91-9.87-2.74-5.21-4.39-11.38-4.8-18.51v-56.2c0-17.14-6.58-30.85-19.74-40.86-5.9-4.52-12.21-8.09-19.06-10.69-12.48-4.8-25.09-7.13-37.97-7.13-11.66,0-21.25.55-28.79,1.51-7.54,1.09-14.12,2.47-19.6,4.25-5.62,1.78-10.83,3.7-15.77,5.76l-6.44,2.46,33.45,24.55c8.91-7.55,15.77-12.75,20.7-15.36s10.14-3.97,15.62-3.97c8.91,0,13.99,7.12,14.94,21.25-6.58-.96-13.43-1.37-20.43-1.37-23.99,0-43.05,4.52-57.44,13.57-15.91,10.01-23.86,25.09-23.86,45.25s7.95,34.82,23.86,44.28c13.84,8.23,33.04,12.34,57.44,12.34,8.91,0,17.69-.55,26.46-1.64,11.24-1.24,22.07-1.78,32.63-1.78,9.6,0,20.02,1.09,31.4,3.28.95.14,1.92.27,2.88.27M1601.39,236.48c2.06,0,3.57-.55,4.8-1.78,1.1-1.24,1.64-2.6,1.64-4.11,0-2.74-1.1-4.66-3.43-5.62-3.29-1.37-6.31-4.66-8.91-9.87-2.74-5.21-4.39-11.38-4.79-18.51l-.14-163.41c0-6.17-.96-9.87-2.88-10.96-2.06-1.1-3.7-1.65-4.93-1.65-1.78,0-3.84.69-5.9,2.2l-6.17,3.57c-4.25,2.46-9.32,5.21-15.35,8.09-6.17,2.88-11.79,5.21-17,6.72-5.35,1.51-9.6,2.33-13.03,2.33-1.51,0-3.01-.14-4.25-.41s-2.47-.41-3.43-.41c-2.06,0-3.57.55-4.67,1.78-1.23,1.24-1.78,2.6-1.78,4.11,0,2.6,1.1,4.52,3.43,5.48,3.29,1.51,6.3,4.8,9.05,9.87,2.6,5.21,4.25,11.38,4.66,18.51v114.34c-.41,7.13-2.06,13.29-4.66,18.37-2.74,5.21-5.76,8.5-9.05,9.87-1.78.83-2.88,1.78-3.02,3.02-.27,1.24-.41,2.2-.41,2.6,0,1.51.55,2.88,1.78,4.11,1.1,1.24,2.61,1.78,4.67,1.78.95,0,2.06-.14,3.29-.41,10.7-2.06,23.58-3.01,38.53-3.01s27.96.95,38.65,3.01c1.24.27,2.33.41,3.29.41M1421.25,219.75c-5.35,0-10.01-5.9-13.71-17.82-3.84-11.79-5.76-26.05-5.76-42.63s1.92-30.98,5.76-42.91c3.7-11.79,8.36-17.69,13.71-17.69s9.87,5.9,13.71,17.69c3.84,11.93,5.76,26.18,5.76,42.91s-1.92,30.84-5.76,42.63c-3.84,11.93-8.36,17.82-13.71,17.82M1421.25,236.21c14.94,0,28.52-3.43,40.85-10.42,12.21-6.86,22.08-16.18,29.34-27.83s10.97-24.54,10.97-38.66-3.71-27.14-10.97-38.8c-7.26-11.66-17.13-20.84-29.34-27.83-12.33-6.99-25.91-10.42-40.85-10.42s-28.65,3.43-40.85,10.42c-12.34,6.99-22.21,16.17-29.47,27.83-7.27,11.65-10.97,24.67-10.97,38.8s3.7,27.01,10.97,38.66c7.26,11.65,17.13,20.97,29.47,27.83,12.2,6.99,25.91,10.42,40.85,10.42M1324.73,236.48c2.06,0,3.57-.55,4.8-1.78,1.1-1.24,1.64-2.6,1.64-4.11,0-2.74-1.1-4.66-3.43-5.62-3.29-1.37-6.31-4.66-8.91-9.87-2.74-5.21-4.39-11.38-4.79-18.51v-60.86c0-18.78-5.49-32.36-16.32-40.99-8.91-6.99-20.43-11.1-34.54-12.34-6.17-.41-11.93-.69-17.27-.69-7.27,0-13.72,1.24-19.47,3.57-5.76,2.33-10.14,5.76-13.16,10.01,0-4.8-.68-8.23-2.06-10.42-1.51-2.06-2.74-3.15-3.84-3.28h-1.92c-1.78,0-3.7.68-5.62,1.92l-6.17,3.57c-4.25,2.47-9.32,5.07-15.35,7.95-6.17,2.88-11.79,5.21-17,6.72-5.35,1.64-9.6,2.46-13.03,2.46-1.5,0-3.01-.13-4.25-.41s-2.47-.41-3.43-.41c-2.06,0-3.57.55-4.66,1.78-1.24,1.24-1.78,2.6-1.78,4.11,0,2.6,1.1,4.53,3.43,5.48,3.29,1.38,6.3,4.66,9.05,9.87,2.6,5.22,4.25,11.39,4.66,18.51v53.61c-.41,7.13-2.06,13.29-4.66,18.37-2.74,5.21-5.76,8.5-9.05,9.87-1.78.83-2.88,1.78-3.02,3.02-.27,1.24-.41,2.2-.41,2.6,0,1.51.55,2.88,1.78,4.11,1.1,1.24,2.6,1.78,4.66,1.78.95,0,2.06-.14,3.29-.41,10.7-2.06,23.58-3.01,38.53-3.01s27.96.95,38.65,3.01c1.24.27,2.33.41,3.29.41,2.06,0,3.57-.55,4.8-1.78,1.1-1.24,1.64-2.6,1.64-4.11,0-2.74-1.1-4.66-3.43-5.62-3.29-1.37-6.31-4.66-8.91-9.87-2.74-5.21-4.39-11.38-4.79-18.51v-64.02c0-10.56,1.92-18.92,5.76-24.81s8.36-8.91,13.71-8.91c3.43,0,6.58,1.09,9.46,3.43,2.74,2.33,4.93,6.17,6.58,11.52,1.65,5.34,2.47,12.33,2.47,21.11v61.83c-.41,7.13-2.06,13.29-4.66,18.37-2.74,5.21-5.76,8.5-9.05,9.87-1.78.83-2.88,1.92-3.02,3.16-.27,1.23-.41,2.06-.41,2.46,0,1.51.55,2.88,1.78,4.11,1.1,1.24,2.61,1.78,4.66,1.78.96,0,1.92-.14,3.16-.41,10.69-2.06,23.58-3.01,38.66-3.01s27.96.95,38.65,3.01c1.24.27,2.33.41,3.29.41M1048.35,236.48c2.06,0,3.57-.55,4.8-1.78,1.1-1.24,1.64-2.6,1.64-4.11,0-2.74-1.1-4.66-3.43-5.62-3.29-1.37-6.31-4.66-8.91-9.87-2.74-5.21-4.39-11.38-4.79-18.51l-.14-163.41c0-6.17-.96-9.87-2.88-10.96-2.06-1.1-3.7-1.65-4.93-1.65-1.78,0-3.84.69-5.9,2.2l-6.17,3.57c-4.25,2.46-9.32,5.21-15.35,8.09-6.17,2.88-11.79,5.21-17,6.72-5.35,1.51-9.6,2.33-13.03,2.33-1.51,0-3.01-.14-4.25-.41s-2.47-.41-3.43-.41c-2.05,0-3.56.55-4.66,1.78-1.23,1.24-1.78,2.6-1.78,4.11,0,2.6,1.1,4.52,3.43,5.48,3.29,1.51,6.3,4.8,9.05,9.87,2.6,5.21,4.25,11.38,4.66,18.51v114.34c-.41,7.13-2.06,13.29-4.66,18.37-2.74,5.21-5.76,8.5-9.05,9.87-1.78.83-2.88,1.78-3.02,3.02-.27,1.24-.41,2.2-.41,2.6,0,1.51.55,2.88,1.78,4.11,1.1,1.24,2.61,1.78,4.66,1.78.96,0,2.06-.14,3.29-.41,10.7-2.06,23.58-3.01,38.53-3.01s27.96.95,38.65,3.01c1.24.27,2.33.41,3.29.41M854.78,153.68c-2.6-10.01-3.84-18.37-3.84-25.09l.14-3.02c.41-7.26,2.06-12.89,4.66-16.86,2.6-3.84,5.48-6.44,8.91-7.95,3.43-1.37,6.44-2.06,9.19-2.06,5.35,0,9.87,1.51,13.57,4.53,3.71,3.01,6.44,6.3,7.95,10,1.51,3.71,2.33,7,2.33,10.01,0,5.62-2.06,9.74-6.03,12.34l-36.88,18.1ZM873.83,236.21c10.96,0,20.15-1.24,27.42-3.84,7.26-2.46,13.43-5.76,18.78-9.74,5.35-3.97,10.28-8.36,15.08-13.16,3.15-3.15,4.66-5.76,4.66-8.09v-.55c-.27-2.33-1.09-3.57-2.6-3.98-1.51-.27-2.46-.41-3.01-.41-2.06,0-4.25.69-6.58,2.19-8.91,5.62-17.13,8.5-24.81,8.5-2.2,0-4.39-.27-6.58-.68-9.45-2.33-17.41-7.41-23.99-15.49-6.72-8.09-11.51-17.14-14.53-27.15,25.91-5.48,48.26-10.14,66.9-13.84l12.89-2.88c7.55-2.33,11.38-7.41,11.38-15.49,0-4.53-1.92-10.15-5.76-16.59-3.15-5.34-7.81-10.56-13.98-15.49-14.26-11.51-32.63-17.27-55.25-17.27-14.94,0-28.65,3.43-40.86,10.42-12.33,6.99-22.21,16.17-29.47,27.83-7.26,11.65-10.96,24.67-10.96,38.8s3.7,27.01,10.96,38.66c7.26,11.65,17.14,20.97,29.47,27.83,12.21,6.99,25.91,10.42,40.86,10.42M777.32,236.48c2.06,0,3.57-.55,4.79-1.78,1.1-1.24,1.65-2.6,1.65-4.11,0-2.74-1.09-4.66-3.43-5.62-3.28-1.37-6.3-4.66-8.91-9.87-2.74-5.21-4.39-11.38-4.8-18.51v-60.86c-.41-13.58-3.28-24.41-8.5-32.36-5.21-7.81-12.75-13.43-22.76-16.73-10.01-3.28-22.21-4.93-36.88-4.93-6.99,0-13.43.96-19.19,2.88-5.76,1.92-10.14,4.8-13.03,8.64l-.13-60.05c0-4.11-.69-7.26-2.06-9.32-1.37-2.06-2.6-3.02-3.7-3.15h-2.2c-1.78,0-3.7.68-5.76,2.06l-6.17,3.57c-4.25,2.46-9.32,5.21-15.36,8.09-6.16,2.88-11.79,5.21-16.99,6.72-5.35,1.51-9.6,2.33-13.03,2.33-1.51,0-3.02-.14-4.25-.41-1.24-.27-2.47-.41-3.43-.41-2.06,0-3.56.55-4.66,1.78-1.24,1.24-1.78,2.6-1.78,4.11,0,2.6,1.1,4.52,3.43,5.48,3.28,1.51,6.3,4.8,9.05,9.87,2.6,5.21,4.25,11.38,4.66,18.51v114.34c-.41,7.13-2.06,13.29-4.66,18.37-2.74,5.21-5.76,8.5-9.05,9.87-1.78.83-2.88,1.78-3.02,3.02-.27,1.24-.41,2.2-.41,2.6,0,1.51.55,2.88,1.78,4.11,1.1,1.24,2.6,1.78,4.66,1.78.96,0,2.06-.14,3.29-.41,10.7-2.06,23.58-3.01,38.52-3.01s27.97.95,38.66,3.01c1.24.27,2.33.41,3.29.41,2.06,0,3.57-.55,4.8-1.78,1.09-1.24,1.64-2.6,1.64-4.11,0-2.74-1.1-4.66-3.43-5.62-3.29-1.37-6.31-4.66-8.91-9.87-2.74-5.21-4.39-11.38-4.8-18.51v-64.02c0-10,.96-17.55,2.74-22.34,1.78-4.8,4.25-7.82,7.13-9.32,2.88-1.38,6.17-2.06,9.6-2.06,5.35,0,9.46,1.78,12.07,5.21,2.6,3.57,4.25,8.09,5.21,13.57.82,5.49,1.24,11.24,1.24,17.27v61.83c-.41,7.13-2.06,13.29-4.66,18.37-2.74,5.21-5.76,8.5-9.05,9.87-1.78.83-2.88,1.92-3.02,3.16-.27,1.23-.41,2.06-.41,2.46,0,1.51.55,2.88,1.78,4.11,1.09,1.24,2.6,1.78,4.66,1.78.96,0,1.92-.14,3.15-.41,10.7-2.06,23.58-3.01,38.66-3.01s27.97.95,38.66,3.01c1.24.27,2.33.41,3.29.41M519.86,236.34c10.97,0,20.15-1.23,27.42-3.83,7.27-2.6,13.43-5.9,18.78-9.88,5.35-3.97,10.28-8.36,15.08-13.16,3.15-3.15,4.66-5.76,4.66-8.09v-.55c-.27-2.33-1.1-3.57-2.6-3.98-1.51-.27-2.47-.41-3.02-.41-2.06,0-4.25.69-6.58,2.19-8.77,5.62-16.86,8.5-24.4,8.5-1.65,0-3.29-.13-4.93-.41-8.91-1.51-16.73-5.62-23.17-12.61-6.58-6.86-11.65-14.94-15.22-24.41-3.7-9.45-5.48-18.23-5.48-26.6,0-11.1.82-20.01,2.6-26.46,1.78-6.44,4.11-10.97,7.12-13.71,2.88-2.74,6.17-4.11,9.74-4.11s6.72,1.09,9.05,3.15c2.33,2.19,3.84,4.66,4.8,7.26.82,2.74,1.24,5.21,1.24,7.41,0,4.39-1.1,7.95-3.29,10.83-1.38,1.78-2.06,3.28-2.06,4.52,0,.55.13,1.09.27,1.51.41.96,1.37,1.51,2.6,1.51.69,0,1.64-.14,2.74-.55l45.37-18.24c1.78-.69,2.88-1.37,3.16-1.92.13-.55.27-.96.27-1.24,0-.96-.96-2.47-2.88-4.39-7.55-8.09-16.59-14.53-27.15-19.33s-21.93-7.13-34.13-7.13c-14.94,0-28.65,3.43-40.85,10.42-12.34,6.99-22.21,16.17-29.47,27.83-7.27,11.65-10.97,24.67-10.97,38.8s3.7,27.01,10.97,38.66c7.26,11.65,17.13,20.97,29.47,27.96,12.2,6.99,25.91,10.42,40.85,10.42M336.42,219.75c-3.57,0-6.85-1.09-9.73-3.15-3.02-2.06-5.35-5.9-7.13-11.65-1.78-5.76-2.74-14.26-2.74-25.36s.96-19.74,2.74-25.91,4.11-10.42,7.13-12.75c2.88-2.33,6.16-3.57,9.73-3.57s6.86,1.24,9.74,3.57c2.88,2.33,5.35,6.58,7.13,12.75s2.6,14.8,2.6,25.91-.82,19.6-2.6,25.36c-1.78,5.76-4.25,9.6-7.13,11.65-2.88,2.06-6.17,3.15-9.74,3.15M429.79,236.34c2.2,0,3.84-.55,5.07-1.78,1.1-1.24,1.64-2.61,1.64-4.39,0-2.47-1.09-4.25-3.29-5.22-3.28-1.37-6.3-4.66-8.91-9.87-2.74-5.21-4.39-11.38-4.8-18.51v-56.2c0-17.14-6.58-30.85-19.74-40.86-5.9-4.52-12.21-8.09-19.06-10.69-12.47-4.8-25.09-7.13-37.97-7.13-11.65,0-21.25.55-28.79,1.51-7.54,1.09-14.12,2.47-19.6,4.25-5.62,1.78-10.83,3.7-15.77,5.76l-6.44,2.46,33.45,24.55c8.91-7.55,15.77-12.75,20.7-15.36s10.14-3.97,15.63-3.97c8.91,0,13.98,7.12,14.94,21.25-6.58-.96-13.43-1.37-20.43-1.37-23.99,0-43.05,4.52-57.44,13.57-15.91,10.01-23.86,25.09-23.86,45.25s7.95,34.82,23.86,44.28c13.84,8.23,33.04,12.34,57.44,12.34,8.91,0,17.69-.55,26.46-1.64,11.24-1.24,22.07-1.78,32.63-1.78,9.6,0,20.02,1.09,31.4,3.28.96.14,1.92.27,2.88.27M171.33,236.48c2.06,0,3.57-.55,4.8-1.78,1.09-1.24,1.64-2.6,1.64-4.11,0-2.74-1.09-4.66-3.43-5.62-3.29-1.37-6.31-4.66-8.91-9.87-2.74-5.21-4.39-11.38-4.79-18.51v-64.02c0-10.56,1.92-18.92,5.76-24.81,3.84-5.9,8.36-8.91,13.71-8.91,9.87,0,15.77,7.95,17.82,23.99.55,2.88,2.74,4.25,6.58,4.25.95,0,2.06-.13,3.28-.27,5.76-.96,12.21-3.02,19.47-6.17,7.26-3.15,13.16-6.44,17.96-9.87,4.8-3.29,7.13-5.76,7.13-7.26l-.14-.55c-4.66-6.44-10.42-11.1-17.13-14.26-6.86-3.01-13.98-4.93-21.52-5.76-7.55-.82-14.4-1.24-20.71-1.24-7.26,0-13.71,1.24-19.46,3.57-5.76,2.33-10.14,5.76-13.3,10.01,0-4.8-.68-8.23-2.06-10.42-1.5-2.06-2.74-3.15-3.7-3.28h-1.92c-1.78,0-3.71.68-5.62,1.92l-6.17,3.57c-4.25,2.47-9.32,5.07-15.49,7.95-6.17,2.88-11.79,5.21-17,6.72-5.21,1.64-9.6,2.46-13.02,2.46-1.51,0-3.02-.13-4.25-.41-1.24-.27-2.33-.41-3.29-.41-2.06,0-3.56.55-4.66,1.78-1.23,1.24-1.78,2.6-1.78,4.11,0,2.6,1.1,4.53,3.43,5.48,3.28,1.38,6.3,4.66,9.05,9.87,2.6,5.22,4.25,11.39,4.66,18.51v53.61c-.41,7.13-2.06,13.29-4.66,18.37-2.74,5.21-5.76,8.5-9.05,9.87-1.78.83-2.88,1.78-3.02,3.02-.27,1.24-.41,2.2-.41,2.6,0,1.51.55,2.88,1.78,4.11,1.1,1.24,2.6,1.78,4.66,1.78.96,0,1.92-.14,3.16-.41,10.69-2.06,23.58-3.01,38.65-3.01s27.97.95,38.66,3.01c1.24.27,2.33.41,3.29.41"/>
</svg>