<?xml version="1.0" encoding="utf-8"?>
<!-- Generator: Adobe Illustrator 28.1.0, SVG Export Plug-In . SVG Version: 6.00 Build 0)  -->
<svg version="1.1" id="Layer_1" xmlns="http://www.w3.org/2000/svg" xmlns:xlink="http://www.w3.org/1999/xlink" x="0px" y="0px"
	 viewBox="0 0 859.91 88.53" style="enable-background:new 0 0 859.91 88.53;" xml:space="preserve">
<style type="text/css">
	.st0{fill:#CACACA;}
</style>
<g id="oYWuCM_00000160173659673725483390000001411604470215302793_">
	<g>
		<path class="st0" d="M820.18,44.4c0-6.67,0.02-13.34-0.03-20.02c-0.01-1.04,0.33-1.26,1.29-1.24c3.34,0.05,6.67,0.02,10.01,0.02
			c1.51,0,2.01,0.84,1.29,2.25c-0.43,0.84-0.96,1.62-1.42,2.44c-0.15,0.26-0.47,0.55-0.07,0.84c0.49,0.36,0.65-0.14,0.81-0.4
			c1.8-2.82,4.4-4.59,7.62-5.12c6.52-1.06,11.62,1.7,12.83,9.02c0.21,1.29,0.26,2.59,0.26,3.9c0,9.39-0.01,18.78,0.02,28.18
			c0,0.95-0.19,1.31-1.24,1.28c-3.04-0.08-6.09-0.08-9.14,0c-1.01,0.03-1.18-0.33-1.18-1.23c0.03-9.07-0.02-18.13,0.04-27.2
			c0.02-2.59-0.47-3.73-2.4-4.46c-1.88-0.71-4.33,0.01-5.72,1.63c-0.83,0.97-1.3,2.1-1.32,3.37c-0.05,3.73-0.08,7.47-0.09,11.2
			c-0.01,5.11-0.03,10.23,0.02,15.34c0.01,1.03-0.26,1.37-1.33,1.34c-3.04-0.07-6.09-0.06-9.14,0c-0.9,0.02-1.15-0.22-1.15-1.13
			C820.2,57.75,820.18,51.07,820.18,44.4z"/>
		<path class="st0" d="M771.92,65.53c-1.96,0-3.92-0.08-5.87,0.03c-1.04,0.06-1.35-0.36-1.55-1.26
			c-2.31-10.27-4.65-20.52-6.98-30.78c-0.7-3.07-1.37-6.14-2.11-9.2c-0.21-0.87-0.11-1.2,0.91-1.18c3.12,0.06,6.24,0.06,9.36,0
			c0.94-0.02,1.2,0.32,1.34,1.21c1.37,8.43,2.81,16.84,4.18,25.27c0.25,1.53,0.25,3.1,0.38,4.65c0.03,0.3-0.09,0.79,0.33,0.8
			c0.41,0.01,0.35-0.48,0.36-0.79c0.3-6.86,1.97-13.52,2.96-20.28c0.48-3.29,1.12-6.56,1.62-9.85c0.12-0.78,0.43-1.01,1.19-1
			c3.19,0.03,6.38,0.04,9.58,0c0.88-0.01,1.03,0.25,0.84,1.06c-2.62,11.42-5.21,22.84-7.81,34.26c-0.47,2.04-0.99,4.08-1.39,6.13
			c-0.15,0.79-0.5,0.97-1.23,0.95C775.99,65.5,773.96,65.53,771.92,65.53z"/>
		<path class="st0" d="M671.75,44.35c0-6.67,0.02-13.34-0.02-20.01c-0.01-0.99,0.29-1.2,1.22-1.19c7.14,0.04,14.29,0.04,21.43,0
			c1.03-0.01,1.27,0.31,1.24,1.28c-0.07,2.06-0.06,4.13,0,6.2c0.03,0.85-0.27,1.03-1.05,1.02c-3.37-0.04-6.74,0.01-10.12-0.03
			c-0.84-0.01-1.15,0.25-1.14,1.1c0.04,1.99,0.05,3.99,0,5.98c-0.02,0.88,0.31,1.08,1.13,1.07c3.37-0.04,6.74,0.01,10.12-0.03
			c0.77-0.01,1.09,0.13,1.06,0.99c-0.07,1.99-0.07,3.99,0,5.98c0.03,0.87-0.29,1-1.06,0.99c-3.37-0.04-6.74,0.01-10.12-0.03
			c-0.82-0.01-1.16,0.18-1.14,1.06c0.05,2.5,0.04,5,0,7.51c-0.01,0.85,0.27,1.12,1.13,1.11c3.37-0.04,6.74,0,10.12-0.03
			c0.77-0.01,1.09,0.16,1.06,1.02c-0.06,2.1-0.05,4.21,0,6.31c0.02,0.72-0.22,0.91-0.92,0.91c-7.32-0.02-14.65-0.03-21.97,0.01
			c-0.89,0-0.98-0.34-0.98-1.08C671.76,57.77,671.75,51.06,671.75,44.35z"/>
		<path class="st0" d="M727.78,44.26c0-6.49,0-12.98,0-19.47c0-1.63,0-1.63,1.67-1.63c6.93,0,13.85,0.03,20.78-0.03
			c1.14-0.01,1.41,0.34,1.36,1.41c-0.08,1.95-0.07,3.92,0,5.87c0.03,0.93-0.2,1.26-1.2,1.24c-3.3-0.06-6.6,0-9.9-0.04
			c-0.91-0.01-1.19,0.28-1.16,1.18c0.06,1.99,0.05,3.99,0,5.98c-0.02,0.76,0.22,1,0.98,0.99c3.41-0.04,6.82,0.01,10.22-0.03
			c0.81-0.01,1.07,0.21,1.04,1.03c-0.05,1.99-0.05,3.99,0,5.98c0.02,0.79-0.27,0.96-1.01,0.96c-3.37-0.03-6.74,0.01-10.12-0.03
			c-0.8-0.01-1.16,0.15-1.14,1.06c0.06,2.5,0.06,5,0,7.5c-0.02,0.88,0.28,1.12,1.12,1.11c3.34-0.04,6.67,0.01,10.01-0.03
			c0.82-0.01,1.16,0.18,1.13,1.08c-0.06,2.06-0.04,4.13-0.01,6.2c0.01,0.66-0.14,0.95-0.9,0.95c-7.32-0.03-14.65-0.03-21.97,0
			c-0.96,0-0.93-0.52-0.93-1.17C727.78,57.68,727.78,50.97,727.78,44.26z"/>
		<path class="st0" d="M792.29,44.38c0-6.67,0.02-13.34-0.02-20.01c-0.01-0.95,0.25-1.23,1.21-1.22c7.11,0.04,14.21,0.04,21.32,0
			c0.99-0.01,1.33,0.27,1.3,1.28c-0.07,1.99-0.06,3.99,0,5.98c0.02,0.92-0.23,1.27-1.22,1.25c-3.33-0.06-6.67,0-10.01-0.04
			c-0.85-0.01-1.14,0.25-1.12,1.12c0.06,1.99,0.05,3.99,0,5.98c-0.02,0.79,0.2,1.07,1.03,1.06c3.33-0.04,6.67,0.03,10.01-0.05
			c1.1-0.03,1.35,0.36,1.31,1.36c-0.07,1.77-0.06,3.55,0,5.33c0.03,0.95-0.2,1.32-1.26,1.3c-3.3-0.07-6.6,0.01-9.9-0.05
			c-0.99-0.02-1.22,0.3-1.19,1.23c0.06,2.46,0.05,4.93,0,7.4c-0.02,0.82,0.27,1.06,1.07,1.06c3.34-0.03,6.67,0.03,10.01-0.04
			c1.04-0.02,1.3,0.35,1.27,1.31c-0.06,1.99-0.03,3.99-0.01,5.98c0.01,0.68-0.2,0.95-0.93,0.95c-7.32-0.02-14.65-0.03-21.97,0.01
			c-0.87,0-0.9-0.4-0.9-1.05C792.29,57.79,792.29,51.08,792.29,44.38z"/>
		<path class="st0" d="M699.79,44.37c0-6.67,0.02-13.35-0.02-20.02c-0.01-0.96,0.26-1.24,1.22-1.22c3.04,0.06,6.09,0.06,9.14,0
			c0.99-0.02,1.2,0.3,1.2,1.24c-0.03,10.23-0.02,20.45-0.02,30.68c0,1.44,0,1.44,1.41,1.44c3.26,0,6.53,0.02,9.79-0.02
			c0.79-0.01,1.1,0.21,1.08,1.03c-0.04,2.32-0.03,4.64,0,6.96c0.01,0.76-0.19,1.08-1.04,1.07c-7.25-0.03-14.51-0.03-21.76,0
			c-0.84,0-1.03-0.26-1.02-1.05C699.8,57.79,699.79,51.08,699.79,44.37z"/>
		<path class="st0" d="M635.6,56.9c0.13-3.65-0.3-7.33,0.44-10.95c2.28-11.16,8.84-18.62,19.52-22.49c1.28-0.47,1.3-0.42,1.3,0.93
			c0,2.79-0.02,5.58,0.01,8.38c0.01,0.65-0.17,1-0.78,1.34c-6.45,3.56-9.81,9.03-9.9,16.42c-0.06,4.68-0.03,9.35,0.01,14.03
			c0.01,0.82-0.22,1.04-1.03,1.02c-2.86-0.05-5.73-0.05-8.59,0c-0.85,0.02-1.02-0.28-1.01-1.05C635.63,61.97,635.6,59.44,635.6,56.9
			z"/>
		<path class="st0" d="M650.58,23.23c-2.41,1.47-4.7,3.02-6.78,4.9c-1.54,1.39-2.96,2.89-4.15,4.58c-0.42,0.59-0.89,0.84-1.63,0.83
			c-3.95-0.03-7.9-0.04-11.85,0c-0.9,0.01-1.2-0.26-1.18-1.17c0.05-2.72,0.03-5.44,0.01-8.16c-0.01-0.66,0.14-1,0.9-1
			C634.12,23.23,642.35,23.23,650.58,23.23z"/>
		<path class="st0" d="M662.29,39.75c1.45,0,2.9,0.04,4.35-0.02c0.74-0.03,0.91,0.24,0.9,0.93c-0.04,1.99-0.04,3.99,0,5.98
			c0.01,0.7-0.22,0.97-0.93,0.96c-2.97-0.02-5.94-0.02-8.91,0c-0.55,0-0.77-0.17-0.76-0.75c0.03-2.1,0.04-4.2-0.01-6.31
			c-0.01-0.72,0.28-0.83,0.9-0.82C659.32,39.77,660.81,39.75,662.29,39.75z"/>
		<path class="st0" d="M857.27,65.55c-1.44-0.02-2.51-1.14-2.48-2.59c0.02-1.42,1.17-2.56,2.57-2.54c1.45,0.01,2.59,1.21,2.54,2.68
			C859.86,64.53,858.75,65.57,857.27,65.55z M859.41,63.03c0.01-1.2-0.94-2.22-2.07-2.21c-1.12,0.01-2.02,0.93-2.06,2.11
			c-0.04,1.21,0.86,2.23,2.01,2.27C858.42,65.23,859.39,64.23,859.41,63.03z"/>
		<path class="st0" d="M858.24,64.33c-0.7-0.01-0.6-0.75-1.06-0.89c-0.48,0.07-0.06,0.7-0.66,0.84c0-0.7,0-1.36,0-2.02
			c0-0.31,0.04-0.59,0.42-0.63c0.43-0.04,0.87-0.06,1.21,0.28c0.23,0.22,0.35,0.59,0.16,0.78
			C857.84,63.21,857.95,63.74,858.24,64.33z"/>
	</g>
</g>
<g>
	<g>
		<path class="st0" d="M235.94,72.49l1.85,6.69h-3.63L235.94,72.49z M233.06,66.87l-6.29,18.66h5.63l0.66-2.46h5.73l0.68,2.46h5.73
			l-6.29-18.66H233.06z"/>
		<g>
			<path class="st0" d="M254.63,72.28c-0.1-0.65-0.41-1.04-0.83-1.27c-0.41-0.23-0.93-0.34-1.48-0.34c-1.27,0-1.83,0.39-1.83,1.06
				c0,2.8,10.09,1.06,10.09,7.85c0,4.33-3.39,6.43-8.21,6.43c-4.63,0-7.65-2.88-7.78-6.25h5.51c0.12,0.67,0.46,1.17,0.95,1.48
				c0.46,0.31,1.07,0.47,1.63,0.47c1.44,0,2.39-0.49,2.39-1.37c0-2.83-10.09-0.88-10.09-8.01c0-3.97,3.22-5.96,7.61-5.96
				c4.87,0,7.09,2.64,7.5,5.91H254.63z"/>
			<path class="st0" d="M279.1,85.58h-3.7l-0.22-1.84c-0.95,1.19-2.53,2.28-5.29,2.28c-4.49,0-8.51-3.08-8.51-9.59
				c0-5.96,3.51-10.06,9.19-10.06c4.22,0,7.6,2.33,8.31,6.92h-5.46c-0.41-1.53-1.46-2.36-2.95-2.36c-2.27,0-3.34,2.18-3.34,5.47
				c0,2.64,0.78,5.05,3.68,5.05c1.17,0,2.66-0.85,2.95-2.15h-2.54v-4.04h7.87V85.58z"/>
			<path class="st0" d="M288.41,79.02c2.68,0,3.07,0.8,3.07,3.24c0,1.66,0.15,2.85,0.29,3.27h5.82v-0.57
				c-0.68,0-0.61-0.83-0.61-3.26c0-3.76-1.12-4.23-2.97-4.95c2.05-0.6,2.95-2.41,2.95-4.56c0-3.63-1.93-5.31-7.78-5.31h-8.29v18.66
				h5.75v-6.51H288.41z M286.66,71.22h2.68c1.34,0,2.32,0.62,2.32,1.94c0,1.3-0.95,1.76-2.73,1.76h-2.27V71.22z"/>
			<path class="st0" d="M306.72,66.37c-5.46,0-9.19,3.81-9.19,9.67c0,6.35,3.68,9.98,9.19,9.98c5.19,0,9.21-3.58,9.21-9.93
				C315.93,71.17,312.98,66.37,306.72,66.37 M306.67,70.94c2.54-0.08,3.51,2.62,3.51,5.16c0,3.08-0.97,5.37-3.46,5.37
				c-2.75,0-3.44-2.98-3.44-5.37C303.28,73.73,304.06,70.94,306.67,70.94"/>
		</g>
		<polygon class="st0" points="333.91,66.87 331.94,78.4 331.89,78.4 329.79,66.87 325.04,66.87 322.94,78.4 322.89,78.4 
			320.92,66.87 315.36,66.87 319.72,85.53 325.38,85.53 327.38,74.69 327.43,74.69 329.45,85.53 335.1,85.53 339.47,66.87 		"/>
		<g>
			<path class="st0" d="M337.75,84.5l0.02-0.5l0.33,0.01c0.17,0.01,0.34,0.05,0.33,0.25c-0.01,0.25-0.19,0.26-0.39,0.25L337.75,84.5
				z M337.75,84.71l0.27,0.01l0.39,0.71l0.27,0.01l-0.42-0.73c0.23-0.02,0.41-0.14,0.42-0.43c0.01-0.32-0.17-0.47-0.54-0.48
				l-0.6-0.02l-0.05,1.61l0.24,0.01L337.75,84.71z M337.99,86.01c0.74,0.03,1.4-0.54,1.42-1.36c0.03-0.8-0.59-1.42-1.33-1.44
				c-0.75-0.03-1.4,0.55-1.43,1.35C336.63,85.37,337.24,85.99,337.99,86.01 M336.93,84.57c0.02-0.66,0.53-1.15,1.15-1.13
				c0.62,0.02,1.08,0.54,1.06,1.2c-0.02,0.67-0.53,1.15-1.14,1.13C337.38,85.76,336.91,85.24,336.93,84.57"/>
			<path class="st0" d="M258.94,2.51l35.33,0.19c0,0,3.41,0.02,5.66,3.72c2.25,3.7,23.5,48.87,24.7,50.36c0,0,0.42,0.85,1.48,1.85
				l-22.35-0.12c0,0-5.39,0.26-8.62-5.44c-3.23-5.69-18.38-38.69-18.38-38.69s-5.33-10.96-17.87-2.51L258.94,2.51z"/>
			<path class="st0" d="M250.31,59.16c27.29,7.59,31.62-32.4,31.62-32.4s-39.1-11.42-41.81,17.37
				C240.12,44.13,239.09,56.04,250.31,59.16"/>
		</g>
	</g>
</g>
<g>
	<g>
		<g>
			<g>
				<path class="st0" d="M174.41,46.89l-0.39-2.72l-1.13-5.19l-0.02-0.07c-0.1-0.35-0.2-0.71-0.3-1.07
					c-0.38-1.37-0.77-2.8-1.42-4.09l-1.22-2.55l-0.08-0.13c-0.08-0.11-1.9-2.76-4.31-3.83c-1.7-0.76-3.52-1.52-5.53-1.79l-2.51-0.34
					c-0.05-0.01-1.27-0.17-3.07-0.13c-1.77,0.04-3.2,0.21-3.3,0.22l-2.26,0.36l-6.58,1.38l-9.76,1.9c-0.33,0-0.55,0.07-0.76,0.15
					l-6.1,1.2l-4.21,0.94l-2.35,0.59l-0.94,0.2c0.02,0.21,0.05,0.42,0.06,0.64c0.02,0.49-0.02,0.97-0.09,1.44l1.4-0.29l2.38-0.6
					l4.16-0.92l6.14-1.21l0.19-0.06c0.05-0.02,0.09-0.03,0.14-0.04l0.13,0.01l10.02-1.95l6.52-1.37l2.19-0.35
					c0.01,0,1.41-0.16,3.08-0.2c1.63-0.04,2.74,0.11,2.75,0.11l2.51,0.34c1.74,0.23,3.34,0.9,4.97,1.63
					c1.71,0.76,3.16,2.71,3.42,3.06l1.19,2.49c0.57,1.13,0.93,2.45,1.28,3.73c0.1,0.36,0.2,0.71,0.3,1.07l1.1,5.05l0.37,2.57
					l0.21,2.99l-0.04,1.51L172.27,54c-0.27,1.45-0.91,2.89-1.38,3.5c-0.44,0.58-1.47,1.54-1.86,1.88c-1.94,1.5-4.26,2.47-6.3,3.26
					c-0.02,0.01-2.01,0.82-3.71,1.3c-1.69,0.48-5.44,1.06-5.51,1.07l-1.41,0.26l-50.61,8.25l-13.4,2.16l-47.98,7.92l-13.8,2.48
					c-0.02,0-1.52,0.27-3.73,0.39c-2.21,0.12-4.79-0.08-4.86-0.09c-3.86-0.12-7.91-1.6-9.45-2.91c-0.55-0.47-0.85-0.71-1.1-0.91
					c-0.2-0.16-0.36-0.29-0.6-0.5l-1.52-1.75c-0.62-0.79-1.05-1.48-1.58-2.55c-0.47-0.94-0.9-2.02-0.98-2.22
					c-0.31-1.01-0.41-2.25-0.46-3.44c-0.05-0.99,0.13-2.29,0.13-2.29v0c0.67-3.85,2.2-6.83,4.63-9.08c0.01-0.01,1.46-1.24,2.24-1.82
					c0.67-0.5,3.22-1.76,5.81-2.78c0.81-0.32,1.69-0.56,2.54-0.8c0.38-0.11,0.76-0.21,1.1-0.31l6.86-1.74l4.99-1.07l3.85-0.71
					l9.16-1.91l7.32-1.62c0.19-0.04,0.38-0.09,0.56-0.13c0.33-0.08,0.64-0.16,0.96-0.19l9.44-1.87l10.85-2.34l4.74-0.9l3.33-0.73
					l3.25-0.67c-1.19-0.23-2.31-0.71-3.31-1.39l-0.37,0.08l-3.32,0.73l-4.74,0.9l-10.85,2.34l-9.3,1.84
					c-0.44,0.05-0.82,0.15-1.19,0.24c-0.16,0.04-0.32,0.08-0.5,0.12l-7.32,1.62l-9.12,1.91l-3.86,0.71l-5.05,1.08l-6.94,1.76
					c-0.36,0.11-0.73,0.21-1.1,0.31c-0.9,0.25-1.83,0.51-2.74,0.86c-2.29,0.9-5.26,2.28-6.28,3.04c-0.83,0.62-2.28,1.85-2.38,1.93
					c-2.76,2.56-4.54,6-5.29,10.28c-0.01,0.06-0.21,1.52-0.15,2.71c0.06,1.33,0.18,2.74,0.56,3.98l0.02,0.07
					c0.02,0.05,0.51,1.3,1.07,2.43c0.59,1.19,1.1,2,1.83,2.93l1.6,1.84l0.1,0.1c0.29,0.25,0.48,0.41,0.71,0.59
					c0.24,0.19,0.53,0.43,1.06,0.88c2.13,1.81,6.73,3.26,10.65,3.39c0.08,0.01,1.64,0.13,3.42,0.13c0.55,0,1.11-0.01,1.67-0.04
					c2.34-0.13,3.91-0.4,3.98-0.42l13.79-2.48l45.42-7.48l2.54-0.44l11.38-1.83l52.64-8.58l1.4-0.26c0.16-0.02,3.91-0.61,5.72-1.12
					c1.81-0.51,3.84-1.34,3.91-1.37c2.16-0.84,4.65-1.88,6.81-3.56l0.05-0.04c0.06-0.05,1.5-1.32,2.16-2.2
					c0.74-0.98,1.47-2.79,1.76-4.4l0.3-2.58l0.05-1.74L174.41,46.89z"/>
			</g>
		</g>
	</g>
	<g>
		<g>
			<path class="st0" d="M62.08,15.57c1.66,1.81,3.35,3.1,5.27,4.49l-0.1,0.09l-5.81,0.77L52,22.05l-4.79,0.49l-4.11,0.29l-4.35,0.18
				l-3.1,0.01c-3.51-0.29-5.83-2.95-8.12-5.42l-1.81-1.63c-0.14-0.1-0.27-0.21-0.36-0.31l6.98,0.4l3.8,0.12l5.96-0.04l6.77-0.14
				l6.87-0.23l4.97-0.24C61.22,15.67,61.67,15.31,62.08,15.57z"/>
		</g>
		<g>
			<path class="st0" d="M68.96,21.11c1.33,0.93,2.76,1.78,4.19,2.52c-3.76,1.55-9.26,2-12.63-0.67c-0.28-0.16-0.55-0.36-0.77-0.62
				l0.96-0.14l2.5-0.38l1.87-0.23l3.56-0.56L68.96,21.11z"/>
		</g>
		<g>
			<path class="st0" d="M60.17,24.18l2.21,1.41c0.18,0.11,0.42,0.21,0.6,0.37l-1.16,0.31l-6.6,1.29L49.1,28.6l-5.71,0.77
				c-2.6,0.57-5.01-0.67-6.77-2.39l-1.99-1.83l-1.09-0.92l0.01-0.09l3.14,0.08l4.82-0.11l3.35-0.19l3.64-0.32l4.7-0.5l4.51-0.55
				l0.33,0.11L60.17,24.18z"/>
		</g>
		<path class="st0" d="M105.51,0.7l3.05,0.79c1.83,0.49,3.5,1.34,5.06,2.34c1.6,1.19,2.54,3.15,2.76,5.02
			c0.09,1-0.53,1.73-0.68,2.68l-1.11,4.42l-0.55,2.92l-0.37,3.08l-0.21,1.94c2.68,2.3,5.04,5.24,5.51,8.74
			c0.29,2.45-0.46,4.74-2.45,6.2c-1.4,1.21-3.47,1.52-5.24,0.85c-0.24-0.01-0.41-0.31-0.61-0.18c-0.84,1.38-2.34,2.53-4.05,2.49
			c-0.43-0.07-0.85-0.1-1.22-0.35c0.75-1.39,1.31-2.88,1.45-4.54c0.31-3.03-1.24-5.88-3.73-7.31l-1.02-0.53
			c0.33-0.79,0.94-1.52,0.99-2.42l-0.04-0.05c-1.11,1.08-2.27,2.21-3.55,2.99l0,0.1c1.95,0.97,3.95,2.51,4.79,4.65
			c0.92,2.24,0.69,5.47-1.08,7.23c-1.21,1.22-2.87,1.84-4.61,1.45c-0.42-0.17-0.94-0.29-1.25-0.64c0.46-0.55,0.97-1.09,1.29-1.74
			c1.52-3.25,0.3-6.99-1.65-9.57c-0.53,0.02-1.02,0.32-1.55,0.44c-0.24,0.08-0.53,0.07-0.78,0.24c0.86,3.29,0.75,7.76-2.04,9.98
			c-1.2,1.03-2.71,1.56-4.36,1.23l-1.32-0.31l-2.76-0.82l-2.85-1.02l-4.08-1.14c-1.69-0.43-3.64-0.54-5.37-0.26
			c1.18-0.7,2.41-1.29,3.59-1.99c-0.14-0.1-0.38,0.03-0.57,0.06c-3.1,0.97-6.64,1.24-10.14,0.66l-2.78-0.54l-3.38-0.81l-2.4-0.47
			l-3.16-0.56c-0.47-0.12-0.99-0.1-1.51-0.18l2.89-0.6l1.26-0.31l3.39-0.9l2.52-0.76l2.38-0.72l2.77-0.94l5.16-1.9
			c0.93,0.34,1.97,0.49,2.96,0.74l-0.15,0.09l-2.79,1.27l-3.85,1.59l-3.02,1.12c-0.44,0.17-0.87,0.28-1.26,0.45
			c0.33,0.11,0.76,0,1.14-0.03l1.44-0.25l2.46-0.57l2.52-0.81l2.04-0.74l2.98-1.26l1.08-0.56c0.9,0,1.85,0.06,2.71,0.06l-0.45,0.4
			l-2.68,1.8c-1.43,0.92-2.91,1.69-4.33,2.52c1.53-0.1,2.94-0.59,4.35-1.13l1.37-0.59l2.21-1.16c0.79-0.48,1.53-1.01,2.32-1.49
			c0.79,0.28,1.59,0.47,2.45,0.47l0,0.05l-2.77,1.75l-2.23,1.45l-2.86,1.65c-0.25,0.18-0.54,0.26-0.79,0.43
			c0.42,0.21,0.94,0.2,1.42,0.22c2.28,0.03,4.2-1.05,5.94-2.33c-0.28,1.51-1.44,2.63-2.45,3.72c1.19-0.03,2.15-0.97,3.05-1.68
			c2.2-1.78,2.92-4.5,5.12-6.24c0.06,0.58,0.07,1.24,0.13,1.87l0.2,2.39c0.07,2.19-0.36,4.65-2.25,6.06
			c0.09,0.15,0.33,0.02,0.47,0.07c1.78-0.33,3.21-1.96,3.73-3.6c0.91-2.52,0.15-5.18-0.82-7.38c3.93,0.41,7.19-1.64,9.96-4.29
			c1.03-1.32,2.38-2.53,2.72-4.23l-0.04-0.05l-2,1.74c-0.35,0.27-0.79,0.57-1.19,0.84c-0.08-1.05,0.36-2.08,0.27-3.08
			c0.01-0.14-0.04-0.19-0.13-0.25c-3.66-0.11-6.78-1.34-9.58-3.21c-0.64,0.3-1.27,0.64-1.87,1.04L87.22,20l-3.83,2.93
			c-0.79,0.57-1.41,1.35-2.42,1.43c-1.87,0.27-3.65-0.35-5.18-1.1l-3.42-1.86c-0.1,0.04-0.18-0.11-0.28-0.16
			c0.73-0.24,1.5-0.39,2.27-0.59l5.71-1.49l5.14-1.57l4.18-1.43c0.05,0,0-0.05,0.01-0.09l-0.59-0.51c-0.97,0.23-1.89,0.56-2.81,0.84
			l-4.16,1.19l-4.06,1.06l-4.49,0.98c-1.5,0.49-3.56,0.56-4.88-0.52l-1.78-1.29l-2.24-1.7c-0.23-0.2-0.55-0.41-0.72-0.66
			c0.44-0.12,0.91-0.09,1.3-0.21l3.2-0.2l3.83-0.35l5.8-0.58l8.16-1.01c0.1-0.04,0.33-0.03,0.2-0.18l-0.72-0.76l-0.77,0.05
			l-9.64,1.17l-3.55,0.37l-4.07,0.29l-4.21,0.29l-0.76,0.05l-1.04-1.01l-1.75-1.82c-0.22-0.25-0.45-0.5-0.63-0.7l-0.05,0
			c0.46,1.22,0.91,2.43,1.85,3.44l-0.1,0.09l-5.54,0.26l-7.88,0.27l-5.1,0.04l-6-0.01l-5.04-0.14l-4.31-0.39
			c-2.04-0.21-3.64-1.35-5.19-2.53l-2.08-1.88c-0.95-0.91-1.79-2.01-2.64-2.96l-1.78-2.15l0,0l4.44,0.68l5.49,0.65l6.73,0.57
			l10.82,0.66l6.04,0.25l6.76,0.15l3,0.03l8.12-0.35l4.59-0.26l2.78-0.22l3.59-0.37l2.83-0.36l0.33,0.02l4.19-0.71l3.98-0.49
			l3.02-0.3L95,4.68l3.19,0.09c3.7,0.26,7.29,0.89,10.12,2.96c0.76,0.81,1.14,1.78,1.07,2.87l-0.68,5.3l-0.95,9.19l-0.06,1.14
			c2.94,2.69,4.64,6.36,4.07,10.52c0.09,0.15,0.19-0.04,0.29-0.08c1.56-1.44,1.93-3.75,1.52-5.87c1.29,0.79,1.87,2.3,1.93,3.78
			c0.59-1.06,0.62-2.58,0.36-3.74c-0.51-2.79-2.81-5.11-5.31-6.26l-0.04-0.15l0.3-3.56l0.76-7.58c0.19-0.89,0.16-1.94,0.45-2.83
			c0.32-2.27-1.05-4.25-2.83-5.45c-1.05-0.77-2.42-1.09-3.68-1.49l-2.54-0.53l-1.94-0.25l-3.04-0.17l-3.72,0.12l-2.63,0.18
			L88.32,3.2l-4.08,0.53c-1.06,0.18-2.12,0.36-3.22,0.58l-4.46,0.46l-8.09,0.68l-2.25,0.16L58,6.1l-2.77,0.08L48.8,6.15l-4.56-0.26
			l-3.02-0.46c-3.29-0.76-6.25-2.31-8.32-5.24l0.76,0.09l3.63,0.59l5.35,0.64l6.35,0.55l7.7,0.34l9.14,0.19l7.38-0.01l5.82-0.15
			l3.3-0.15l4.28-0.66l6.64-1.1c2.25-0.25,4.51-0.6,6.89-0.51l2.65,0.25L105.51,0.7z M100.84,34.35l-0.05,0.09
			c0.74,2,0.92,4.77-0.1,6.76c0.58-0.16,0.94-0.71,1.26-1.21c0.8-1.53,0.19-3.28-0.45-4.69C101.28,34.95,101.16,34.56,100.84,34.35z
			"/>
		<g>
			<path class="st0" d="M91.93,20.18l1.63,0.71l0,0.1l-1.82,1.85l-2.76,2.51c-1.01,1.09-2.51,1.33-3.96,0.97
				c-0.98-0.29-2.07-0.45-3-0.84c0.35-0.31,4.47-3.27,4.47-3.27l1.79-1.33l2.23-1.45C91.01,19.6,91.46,19.96,91.93,20.18z"/>
		</g>
		<g>
			<path class="st0" d="M97.21,22.05c-0.37,0.74-0.85,1.48-1.31,2.16c-0.61,0.73-1.18,1.41-1.88,2.04
				c-1.39,1.02-3.33,0.81-4.98,0.53c-0.04-0.05-0.04-0.1-0.04-0.15l2.86-2.6l2.17-2.07l0.65-0.63l2.11,0.55L97.21,22.05z"/>
		</g>
		<g>
			<path class="st0" d="M99.99,22.44c0.21,1.35-1.09,2.41-2.12,3.02c-0.93,0.42-1.86,0.89-2.92,1.07c0.11-0.33,0.6-0.49,0.81-0.81
				c0.97-1.09,1.61-2.34,2.39-3.48C98.76,22.33,99.43,22.36,99.99,22.44z"/>
		</g>
		<g>
			<path class="st0" d="M76.36,25.1c0.79,0.33,1.58,0.61,2.38,0.9c-1.63,1-3.57,1.61-5.53,1.83c-2.36,0.39-4.6-0.36-6.55-1.32
				l0.15-0.13l2.61-0.66l4.8-1.44C75.02,24.41,75.66,24.87,76.36,25.1z"/>
		</g>
		<g>
			<path class="st0" d="M85.18,27.46l0.99,0.1l-0.01,0.09c-3.17,2.06-7.51,2.29-11.46,1.4c1.99-0.65,3.85-1.5,5.67-2.58l2.39,0.61
				L85.18,27.46z"/>
		</g>
		<g>
			<path class="st0" d="M91.19,28.14l0,0.05c-1.83,1.13-3.94,2.3-6.29,1.69l0.01-0.09l2.74-2.04C88.77,28.05,90,28.16,91.19,28.14z"
				/>
		</g>
		<g>
			<path class="st0" d="M67.75,28.23c0.7,0.28,1.4,0.51,2.05,0.83l-2.19,0.78l-3.11,1.11l-4.41,1.37l-4.35,1.18l-3.19,0.72
				l-2.5,0.38c-1.96,0.13-3.69-0.54-5.25-1.44l-2.48-1.67c-0.28-0.16-0.6-0.41-0.87-0.57l2.98-0.4l2.69-0.37l3.32-0.53l6.59-1.2
				l7.62-1.62l0.74,0.33L67.75,28.23z"/>
		</g>
		<path class="st0" d="M144.86,41.81c1.08,1.92,0.18,4.39-1.01,5.99l-0.76,0.86l0.04,0.15c1.57,0.8,2.87,2.35,2.81,4.21
			c0.03,2.76-2.06,5.17-4.5,6.22c-1.72,0.95-3.69,1.31-5.71,1.63l-7.36,1.3l-0.33-0.02l0.02-0.33l0.49-4.4l0.91-10.1l0.45-6.31
			l0.62-0.11l2.46-0.48l3.94-0.63C139.62,39.37,143.2,39.19,144.86,41.81z M136.05,43.55l-0.16,1.09l-0.35,3.6
			c0.38,0.07,0.67-0.11,1.06-0.13c0.88-0.33,1.89-0.65,2.42-1.53c0.37-0.69,0.38-1.69-0.15-2.34
			C138.2,43.43,137.01,43.31,136.05,43.55z M135.71,51.2c-1.04-0.11-0.54,1.21-0.77,1.81l-0.35,3.55l0.04,0.14l0.77-0.15
			c1.45-0.3,3.29-0.96,3.82-2.59c0.13-0.71-0.01-1.48-0.41-2.02C138.2,50.96,136.76,51.16,135.71,51.2z"/>
		<path class="st0" d="M119.89,42.87l-0.44,9.41l-0.12,5.47c0.04,0.14-0.02,0.28,0.07,0.38l1.15-0.17l6.45-1.11
			c0.1,0.01,0.19,0.06,0.18,0.15l-0.36,3.84l-0.23,1.56l-0.63,0.15l-4.48,0.84l-1.39,0.21l-12.56,2.14
			c-0.28-0.02-0.31-0.35-0.45-0.55l-1.29-2.5c-0.3-0.64-0.6-1.22-0.99-1.87l-0.58,0.11l-4.62,0.79l-3.13,0.63
			c-0.43,0.79-0.57,1.68-0.9,2.47L94.45,68l-1.45,0.3l-9.14,1.53l-0.14-0.1l-2.36-2.85l-3.23-3.57c-0.27-0.21-0.44-0.64-0.77-0.76
			l-0.15,1.8l-0.47,6.59c-0.01,0.19-0.2,0.18-0.35,0.22l-0.63,0.11l-4.09,0.67l-1.73,0.28l-0.23-0.16l0.16-2.04l0.33-3.31
			l0.83-11.34l0.24-4.18l0.1-0.09l2.26-0.4l4.86-0.77l0.04,0.15l-0.83,8.72c0,0.05-0.01,0.1-0.01,0.14c0.63-0.97,1.21-1.98,1.74-3
			l3.08-5.59l0.74-1.29l0.15-0.13l3.22-0.53l4.14-0.72c0.05,0,0.09,0.05,0.09,0.1c-0.16,0.37-0.38,0.79-0.68,1.11
			c-0.12,0.37-0.37,0.65-0.58,1.01l-3.38,5.86l-2.01,3.55l0.58,0.65l3.92,3.94c0.23,0.16,0.41,0.4,0.64,0.56l0.44-0.97l2.33-5.73
			l2.35-6.16l1.8-4.8l0.1-0.04l7.5-1.29c0.24-0.03,0.18,0.25,0.31,0.35l2.69,5.49l3.39,6.53c0.61,1.08,1.16,2.16,1.77,3.2l0.1-0.09
			l0.43-6.69l0.27-4.75l0.22-5.61l0.63-0.15l6.01-1.04C119.8,42.72,119.89,42.77,119.89,42.87z M100.38,52.62l-0.22-0.25l0,0
			l-1.34,3.54l-0.57,1.64l0.05,0l4.09-0.72l0.24-0.08l-0.3-0.59L100.38,52.62z"/>
		<g>
			<path class="st0" d="M67.66,53.19l-0.44,3.5l-0.24,0.08l-5.53,0.97L60.06,58l-0.15,0.13l-0.24,2.46
				c-0.01,0.1-0.01,0.14,0.04,0.19l2.36-0.39l3.08-0.49c0.43-0.02,0.77-0.15,1.2-0.17c0.09,0.1,0.18,0.25,0.12,0.39l-0.45,4.55
				c-0.25,0.13-0.53,0.07-0.77,0.15l-5.96,1l-0.05,0.04l-0.29,2.56c0.04,0.19-0.07,0.43,0.06,0.58l0.96-0.14l3.32-0.57l4.96-0.86
				c0.23,0.16,0.02,0.57,0.05,0.86l-0.23,3.18c-0.02,0.38-0.04,0.76-0.16,1.09c-0.78,0.24-1.69,0.33-2.5,0.48l-4.96,0.86l-8.27,1.34
				c-0.15,0.04-0.24-0.01-0.28-0.16l0.81-9.29l0.75-11.49l1.4-0.3l3.12-0.49l6.54-1.15l3.08-0.54l0.19,0.06L67.66,53.19z"/>
		</g>
		<path class="st0" d="M45.41,56.69c2.36,0.37,4.35,2.25,5.23,4.44c0.99,2.72,0.7,6.18-0.27,8.94c-1.56,3.15-4.79,5.59-8.14,6.59
			l-2.03,0.6l-3.91,0.87l-2.74,0.42c-0.33-0.07-0.83,0.29-0.99-0.15l0.56-9.83l0.28-10.75l0.1-0.14l5.86-0.91
			c1.49-0.25,2.98-0.5,4.6-0.41C44.42,56.49,45,56.43,45.41,56.69z M44.26,62.68c-0.94-1.05-2.5-1.29-3.89-1.13
			c-0.19,0.04-0.47-0.03-0.54,0.21l-0.5,10.4c1.58-0.1,3.08-0.63,4.15-1.81c1.48-1.68,2.4-4.48,1.33-6.69L44.26,62.68z"/>
		<g>
			<path class="st0" d="M96.13,32.8c1.54,1.96,2.02,4.8,0.94,7.13c-0.47,0.86-1.35,1.76-2.32,2.07c0.13-0.35,0.43-0.64,0.59-0.99
				c1.23-2.05,1.25-4.83,0.72-7.16C95.94,33.37,95.99,33.07,96.13,32.8z"/>
		</g>
		<g>
			<path class="st0" d="M60.39,17.72l-0.15,0.09l-8.02,1.07L46,19.52l-6.03,0.42l-3.24,0.01c-1.66-0.14-3.36-0.38-4.43-1.63
				c0.01-0.1,0.15-0.09,0.24-0.08l6.04,0.15l8.49-0.14l11.84-0.52C59.39,17.71,59.92,17.6,60.39,17.72z"/>
		</g>
		<g>
			<path class="st0" d="M57.39,24.45l-0.15,0.09l-4.63,1.02l-5.44,0.93l-3.7,0.55c-1.39,0.21-3.06,0.21-4.26-0.53
				c-0.09-0.1-0.28-0.16-0.22-0.35c0.58-0.16,1.28,0.03,1.91-0.08l3.2-0.2l2.73-0.23l3.98-0.44l6.24-0.84
				C57.2,24.4,57.3,24.35,57.39,24.45z"/>
		</g>
		<g>
			<path class="st0" d="M63.47,28.85l-3.07,1.16l-2.86,0.89c-2.81,0.84-5.62,1.63-8.67,1.75c-0.81,0-1.61-0.19-2.25-0.56l0.25-0.13
				l2.59-0.28l2.5-0.43l4.19-0.86l3.33-0.76l3.82-0.93c0.15-0.04,0.24-0.03,0.38,0.02L63.47,28.85z"/>
		</g>
		<g>
			<path class="st0" d="M36.95,10.15l9.84,0.42l5.23,0.15c0.42,0.17,0.9,0.05,1.28,0.12l-4.4,0.37l-8.08,0.45l-4.63,0.12l-3.05-0.03
				l-4.46-0.25c-1.89-0.35-3.82-0.74-4.96-2.33l0.01-0.14l7.96,0.79L36.95,10.15z"/>
		</g>
		<g>
			<path class="st0" d="M88.57,34.8c0.03,2.05-0.99,3.99-2.89,4.79c-0.78,0.24-1.74,0.38-2.58,0.09c0.78-0.34,1.62-0.81,2.32-1.39
				c1.2-0.98,2.22-2.26,3.01-3.54L88.57,34.8z"/>
		</g>
		<g>
			<path class="st0" d="M73.98,33.49c-2.37,1.44-4.95,2.43-7.69,2.9c-0.86,0.09-1.73,0.24-2.62,0.09c2.02-0.36,4.19-0.76,6.18-1.51
				l4.04-1.49L73.98,33.49z"/>
		</g>
	</g>
	<g>
		<g>
			<path class="st0" d="M54.64,38.7c1.18,0,2.13,0.96,2.13,2.16c0,1.22-0.94,2.18-2.14,2.18c-1.18,0-2.15-0.95-2.15-2.18
				C52.48,39.66,53.45,38.7,54.64,38.7L54.64,38.7z M54.63,39.04c-0.95,0-1.73,0.82-1.73,1.83c0,1.03,0.78,1.84,1.74,1.84
				c0.96,0.01,1.73-0.81,1.73-1.83C56.37,39.85,55.6,39.04,54.63,39.04L54.63,39.04z M54.22,42.13h-0.38v-2.41
				c0.2-0.03,0.39-0.06,0.68-0.06c0.37,0,0.61,0.08,0.75,0.18c0.15,0.11,0.22,0.27,0.22,0.5c0,0.32-0.21,0.51-0.47,0.59v0.02
				c0.21,0.04,0.35,0.23,0.4,0.59c0.06,0.38,0.12,0.52,0.15,0.6h-0.4c-0.06-0.08-0.12-0.3-0.16-0.61c-0.06-0.31-0.21-0.43-0.52-0.43
				h-0.27V42.13z M54.22,40.79h0.28c0.32,0,0.59-0.11,0.59-0.41c0-0.21-0.15-0.42-0.59-0.42c-0.13,0-0.21,0.01-0.28,0.02V40.79z"/>
		</g>
	</g>
</g>
<g>
	<path class="st0" d="M397.21,43.3c0-18.46,40.82-33.42,91.17-33.42c26.58,0,50.5,4.17,67.16,10.82
		c-17-7.93-42.41-12.97-70.82-12.97c-51.18,0-92.67,16.36-92.67,36.54c0,20.18,41.49,36.54,92.67,36.54
		c40.02,0,74.11-10,87.08-24.01c-14.15,11.73-46.17,19.92-83.42,19.92C438.03,76.72,397.21,61.76,397.21,43.3z"/>
	<path class="st0" d="M504.51,39.32h-0.68l-0.55,3.45h0.71c1.26,0,2.66-0.21,2.92-1.81C507.15,39.39,505.69,39.32,504.51,39.32z"/>
	<path class="st0" d="M565.36,35.59c0,0-0.36,0-0.46,0c0,0,0,0.55,0,0.72c0.11,0,0.55,0,0.55,0c0.27,0,0.47-0.05,0.47-0.38
		C565.92,35.63,565.65,35.59,565.36,35.59z"/>
	<path class="st0" d="M488.72,11.93c-48.92,0-88.58,14.19-88.58,31.7c0,17.51,39.66,31.7,88.58,31.7c48.92,0,88.59-14.19,88.59-31.7
		C577.31,26.12,537.65,11.93,488.72,11.93z M421.56,53.74h-9.13l3.14-19.84h7.34c6.66,0,11.3,2.92,10.15,10.21
		C432.13,50,427.38,53.74,421.56,53.74z M447.13,48.32l-0.86,5.42h-13.56l3.14-19.84h13.34l-0.86,5.42h-6.08l-0.3,1.9h5.55
		l-0.82,5.16h-5.55l-0.31,1.95H447.13z M461.2,53.74h-13.26l3.14-19.84h7.21l-2.14,13.47h6.05L461.2,53.74z M463.14,53.74
		l2.15-13.58l-4,0.18l1.02-6.45h15.16l-1.02,6.45l-3.94-0.18l-2.15,13.58H463.14z M486.51,53.74l-0.26-2.48h-5.45l-0.97,2.48h-7.63
		l10.04-19.84h7.97l3.94,19.84H486.51z M506.17,47.77h-3.69l-0.95,5.97h-6.95l3.15-19.84h9.13c4.64,0,7.68,2.37,6.9,7.29
		C513.12,45.24,510.2,47.77,506.17,47.77z M512.62,53.74l3.14-19.84h7.21l-3.14,19.84H512.62z M534.75,53.74l-4.69-10.42h-0.21
		c0.02,1.37,0.03,2.66-0.18,3.97l-1.02,6.45h-6.89l3.14-19.84h6.92l4.74,11h0.21c-0.03-1.66-0.07-3.37,0.19-5.05l0.94-5.95h6.89
		l-3.14,19.84H534.75z M559.01,39.32h-6.08l-0.3,1.9h5.56l-0.82,5.16h-5.55l-0.31,1.95h6.29l-0.86,5.42h-13.55l3.14-19.84h13.34
		L559.01,39.32z M565.36,39.37c-1.63,0-2.79-1.18-2.79-2.79c0-1.65,1.19-2.78,2.79-2.78c1.6,0,2.8,1.14,2.8,2.77
		C568.16,38.25,566.95,39.37,565.36,39.37z"/>
	<path class="st0" d="M565.36,34.45c-1.18,0-1.99,0.94-1.99,2.14c0,1.19,0.77,2.15,2.06,2.15c0.81,0,1.92-0.69,1.92-2.16
		C567.35,35.4,566.54,34.45,565.36,34.45z M565.89,38.08l-0.69-1.26h-0.3v1.26h-0.64v-3h1.09c0.85,0,1.26,0.25,1.26,0.91
		c0,0.49-0.27,0.76-0.72,0.78l0.76,1.31H565.89z"/>
	<path class="st0" d="M422.25,40.11h-0.45l-1.22,7.69h0.44c2.4,0,4.41-1.11,4.82-3.71C426.3,41.29,424.88,40.11,422.25,40.11z"/>
	<path class="st0" d="M485.37,40.5h-0.26l-2.27,6.05h2.89l-0.29-3.5C485.36,42.21,485.37,41.34,485.37,40.5z"/>
</g>
</svg>
