<?xml version="1.0" encoding="UTF-8"?>
<svg id="Layer_1" data-name="Layer 1" xmlns="http://www.w3.org/2000/svg" viewBox="0 0 57.67 56.32">
  <defs>
    <style>
      .cls-1 {
        letter-spacing: -.07em;
      }

      .cls-2 {
        font-family: Arial-Black, 'Arial Black';
        font-size: 7px;
        font-weight: 800;
      }

      .cls-3 {
        letter-spacing: -.03em;
      }

      .cls-4 {
        stroke-width: 0px;
      }
    </style>
  </defs>
  <text class="cls-2" transform="translate(0 54.18)"><tspan x="0" y="0">IL</tspan><tspan class="cls-3" x="7.39" y="0">L</tspan><tspan x="11.88" y="0">USTR</tspan><tspan class="cls-1" x="33.27" y="0">A</tspan><tspan x="38.23" y="0">TION</tspan></text>
  <g id="nWZxMn">
    <g>
      <path class="cls-4" d="M9.45,38.02c-.57,0-.9-.55-.63-1.1.47-.99.97-1.96,1.46-2.94,1.52-3.07,3.05-6.14,4.57-9.21.32-.65.8-1.15,1.31-1.63,4.42-4.12,8.84-8.24,13.27-12.37,2.23-2.08,4.47-4.15,6.69-6.24.23-.22.37-.22.59.01,2.04,2.2,4.08,4.39,6.13,6.58.4.42.79.85,1.19,1.27.2.2.21.35-.01.56-4.01,3.73-8.01,7.48-12.02,11.21-2.68,2.5-5.37,5-8.05,7.51-.55.51-1.15.91-1.85,1.2-4.05,1.66-8.08,3.33-12.12,5-.16.07-.32.15-.5.14ZM20.02,29.17h0c-.45,0-.89-.02-1.33,0-.4.02-.52-.14-.49-.52.07-.93.11-1.86.19-2.78.02-.28-.06-.35-.33-.35-.63.01-1.27.01-1.9,0-.27,0-.41.09-.53.33-.35.73-.72,1.45-1.08,2.18-.86,1.73-1.71,3.45-2.57,5.18-.1.2-.2.38.14.43.71.12,1.09.56,1.16,1.26.03.27.13.27.34.18,2.56-1.07,5.13-2.13,7.7-3.19.2-.08.29-.21.31-.42.04-.66.09-1.32.14-1.97.02-.24-.08-.34-.33-.34-.47,0-.94,0-1.42,0Z"/>
      <path class="cls-4" d="M48.95,6.78c-.02,1.02-.4,1.89-1.13,2.6-.72.7-1.46,1.36-2.18,2.05-.22.21-.35.2-.56-.02-2.43-2.62-4.87-5.24-7.31-7.84-.24-.25-.22-.39.03-.61.73-.66,1.44-1.34,2.17-2,1.49-1.35,3.74-1.26,5.14.2.99,1.03,1.96,2.08,2.92,3.14.64.7.91,1.55.92,2.49Z"/>
    </g>
  </g>
</svg>