<?xml version="1.0" encoding="utf-8"?>
<!-- Generator: Adobe Illustrator 28.1.0, SVG Export Plug-In . SVG Version: 6.00 Build 0)  -->
<svg version="1.1" id="Layer_1" xmlns="http://www.w3.org/2000/svg" xmlns:xlink="http://www.w3.org/1999/xlink" x="0px" y="0px"
	 viewBox="0 0 437.7 437.5" style="enable-background:new 0 0 437.7 437.5;" xml:space="preserve">
<g>
	<path d="M219,437.5C97.8,437.6-1.3,338,0,216.1C1.3,99.3,96.3,0.6,217.2,0c122.3-0.7,221,97.9,220.4,219.5
		C437.1,341.2,337.8,437.4,219,437.5z M360,219.6c0-20.4,0.2-40.9,0-61.3c-0.2-21.2-7.9-39.5-22.5-54.7
		c-16.2-16.9-36.4-25.1-59.7-25.1c-38.4-0.1-76.7,0-115.1,0c-3.9,0-7.8,0.1-11.7,0.5c-23,2.4-41.7,12.7-56,30.8
		c-11.8,14.9-17.4,32.1-17.4,51.1c0,38.9,0,77.8,0,116.6c0,5.3,0.4,10.5,1.3,15.7c6,37.9,39.5,67.3,77.9,67.6
		c41.1,0.4,82.2,0.1,123.3,0.1c3.1,0,6.1-0.3,9.1-0.6c39.9-4.8,70.8-39.4,70.9-79.5C360,260.3,360,240,360,219.6z"/>
	<path d="M103,220.5c0-20.3,0-40.7,0-61c0-29.8,22.3-53.3,52-54.9c14.3-0.8,28.6-0.3,43-0.3c26.1-0.1,52.3-0.1,78.4,0
		c11.7,0,22.9,2.1,32.8,8.7c15.9,10.6,25.2,25.4,25.4,44.5c0.5,41.8,0.3,83.7,0.1,125.5c-0.2,26.9-21.4,49.8-48.2,52.9
		c-2.8,0.3-5.7,0.5-8.5,0.5c-39.8,0-79.7,0-119.5,0c-27.9,0-50.5-19.1-55-46.6c-0.4-2.7-0.4-5.5-0.5-8.2
		C103,261.2,103,240.9,103,220.5z M291.7,220.5c1-38.4-31-73.1-72.6-73.2c-40.6-0.1-73.4,32.5-73.4,72.9
		c-0.1,40.6,32.4,72.8,73.1,73.1C259.3,293.7,292.6,259.6,291.7,220.5z M311.3,144.2c0-9.5-7-16.7-16.4-16.9
		c-9.2-0.1-16.9,7.5-16.9,16.8c-0.1,8.8,7.6,16.6,16.4,16.7C303.8,161,311.3,153.6,311.3,144.2z"/>
	<path d="M218.7,172.3c26.4-0.1,48.4,21.7,48.3,47.9c0,26.3-21.7,48-48.1,48.2c-26,0.2-48-21.8-48-47.9
		C170.8,194.1,192.2,172.4,218.7,172.3z"/>
</g>
</svg>
