<?xml version="1.0" encoding="utf-8"?>
<!-- Generator: Adobe Illustrator 28.1.0, SVG Export Plug-In . SVG Version: 6.00 Build 0)  -->
<svg version="1.1" xmlns="http://www.w3.org/2000/svg" xmlns:xlink="http://www.w3.org/1999/xlink" x="0px" y="0px"
	 viewBox="0 0 692.22 691.94" style="enable-background:new 0 0 692.22 691.94;" xml:space="preserve">
<style type="text/css">
	.st0{display:none;}
	.st1{display:inline;}
	.st2{fill:#FFFFFF;}
</style>
<g id="Layer_1" class="st0">
	<g class="st1">
		<path d="M346.39,691.94C154.72,692.16-2.13,534.5,0.02,341.84C2.09,157.08,152.24,1.03,343.57,0.01
			C537-1.03,693.07,154.88,692.22,347.24C691.37,539.58,534.33,691.84,346.39,691.94z M569.29,347.35c0-32.33,0.24-64.67-0.07-97
			c-0.31-33.51-12.46-62.48-35.59-86.59c-25.69-26.78-57.53-39.65-94.49-39.73c-60.66-0.14-121.33-0.04-181.99-0.04
			c-6.16,0-12.3,0.14-18.46,0.79c-36.36,3.85-65.94,20.16-88.61,48.67c-18.73,23.55-27.45,50.78-27.48,80.77
			c-0.07,61.5,0,122.99-0.04,184.49c-0.01,8.36,0.69,16.63,2,24.87c9.53,59.98,62.43,106.38,123.22,106.91
			c64.99,0.56,129.99,0.15,194.99,0.16c4.84,0,9.63-0.43,14.44-1.01c63.09-7.57,111.93-62.32,112.07-125.81
			C569.35,411.68,569.29,379.51,569.29,347.35z"/>
		<path d="M162.97,348.77c0-32.16-0.03-64.32,0.01-96.48c0.06-47.21,35.28-84.32,82.32-86.86c22.65-1.23,45.31-0.45,67.96-0.53
			c41.32-0.16,82.65-0.08,123.98-0.03c18.49,0.02,36.19,3.38,51.89,13.79c25.18,16.69,39.81,40.16,40.14,70.41
			c0.72,66.15,0.53,132.31,0.12,198.46c-0.27,42.59-33.78,78.75-76.22,83.65c-4.49,0.52-8.95,0.74-13.45,0.74
			c-62.99-0.01-125.98,0-188.96-0.01c-44.17-0.01-79.91-30.23-87.02-73.71c-0.69-4.24-0.71-8.63-0.72-12.95
			C162.94,413.09,162.97,380.93,162.97,348.77z M461.39,348.78c1.54-60.69-49.01-115.68-114.81-115.79
			c-64.23-0.11-116.02,51.38-116.1,115.31c-0.08,64.24,51.29,115.17,115.61,115.68C410.18,464.48,462.72,410.58,461.39,348.78z
			 M492.35,228.04c0.05-14.97-11.11-26.47-25.88-26.67c-14.55-0.2-26.66,11.85-26.79,26.64c-0.12,13.91,11.99,26.22,26,26.43
			C480.53,254.66,492.31,243.01,492.35,228.04z"/>
		<path d="M345.83,272.58c41.73-0.12,76.5,34.37,76.45,75.81c-0.06,41.63-34.31,75.95-76.14,76.31
			c-41.06,0.35-75.92-34.4-75.98-75.73C270.09,306.95,304.03,272.69,345.83,272.58z"/>
	</g>
</g>
<g id="Layer_2">
	<g id="_x35_qaGH6_00000107554198217637578720000001911436374853857707_">
		<g>
			<path d="M677.77,246.79C634.99,120.18,548.55,41.23,418.53,10.12c-13.48-3.23-27.3-4.4-40.99-6.36H318.4
				c-22.22,2.69-44.44,5.67-65.78,12.57C117.98,59.88,32.64,150.48,8.85,289.87c-23.73,139,25.84,253.13,138.63,338.31
				c47.64,35.98,102.39,56.07,161.62,62.49c185.09,20.05,342.46-105.09,376.83-273.5c2.69-13.17,4.1-26.5,6.12-39.75v-59.14
				C689.17,294.08,685.6,269.95,677.77,246.79z M245.96,514.5c0,5.25-1.72,7.75-7.4,7.69c-20.6-0.2-41.2-0.22-61.79,0.01
				c-5.84,0.07-7.15-2.53-7.13-7.75c0.13-36.5,0.07-72.99,0.07-109.48c-0.01-35.6-0.01-71.2,0-106.8c0-8.79,0.17-8.94,9.12-8.94
				c19.7-0.02,39.41,0.14,59.11-0.09c5.73-0.07,8.04,1.9,8.04,7.74C245.88,369.42,245.89,441.96,245.96,514.5z M207.83,255.96
				c-24.96-0.05-42.38-16.7-42.24-40.4c0.12-22.75,18.24-39.17,43.11-39.07c25.01,0.09,42.31,16.73,42.19,40.56
				C250.77,239.84,232.89,256,207.83,255.96z M527.6,515.79c0.08,4.61-1.86,6.39-6.42,6.37c-20.61-0.11-41.22-0.23-61.82,0.07
				c-6.43,0.09-8.02-2.7-7.99-8.49c0.14-33.82,0.06-67.65,0.06-101.47c0-11.64,0.07-23.33-2.28-34.78
				c-5.07-24.73-20.13-34.45-40.06-33.58c-22.94,0.99-41.24,19.73-41.37,41.58c-0.24,42.34-0.08,84.67-0.1,127.01
				c-0.01,9.6-0.03,9.61-9.82,9.62c-19.27,0.01-38.53,0.01-57.8,0c-9.24-0.01-9.43-0.11-9.21-9.51
				c1.64-67.42,0.83-134.84,0.92-202.26c0-4.7,0.05-9.43-0.37-14.1c-0.43-4.81,1.67-6.41,6.17-6.39c21.06,0.08,42.12,0.1,63.17,0
				c5.23-0.02,7.14,2.35,6.99,7.42c-0.23,7.7-0.06,15.42-0.06,24.36c4.87-3.15,6.62-6.89,9.11-9.89
				c18.18-21.9,42.06-29.16,69.53-27.25c22.09,1.53,41.47,9.21,56.45,26c14.76,16.53,21.83,36.6,23.37,58.21
				C529.55,417.68,526.81,466.76,527.6,515.79z"/>
			<path class="st2" d="M250.89,217.05c-0.12,22.79-18,38.95-43.06,38.91c-24.96-0.05-42.38-16.7-42.24-40.4
				c0.12-22.75,18.24-39.17,43.11-39.07C233.71,176.58,251.01,193.22,250.89,217.05z"/>
			<path class="st2" d="M245.96,514.5c0,5.25-1.72,7.75-7.4,7.69c-20.6-0.2-41.2-0.22-61.79,0.01c-5.84,0.07-7.15-2.53-7.13-7.75
				c0.13-36.5,0.07-72.99,0.07-109.48c-0.01-35.6-0.01-71.2,0-106.8c0-8.79,0.17-8.94,9.12-8.94c19.7-0.02,39.41,0.14,59.11-0.09
				c5.73-0.07,8.04,1.9,8.04,7.74C245.88,369.42,245.89,441.96,245.96,514.5z"/>
			<path class="st2" d="M527.6,515.79c0.08,4.61-1.86,6.39-6.42,6.37c-20.61-0.11-41.22-0.23-61.82,0.07
				c-6.43,0.09-8.02-2.7-7.99-8.49c0.14-33.82,0.06-67.65,0.06-101.47c0-11.64,0.07-23.33-2.28-34.78
				c-5.07-24.73-20.13-34.45-40.06-33.58c-22.94,0.99-41.24,19.73-41.37,41.58c-0.24,42.34-0.08,84.67-0.1,127.01
				c-0.01,9.6-0.03,9.61-9.82,9.62c-19.27,0.01-38.53,0.01-57.8,0c-9.24-0.01-9.43-0.11-9.21-9.51
				c1.64-67.42,0.83-134.84,0.92-202.26c0-4.7,0.05-9.43-0.37-14.1c-0.43-4.81,1.67-6.41,6.17-6.39c21.06,0.08,42.12,0.1,63.17,0
				c5.23-0.02,7.14,2.35,6.99,7.42c-0.23,7.7-0.06,15.42-0.06,24.36c4.87-3.15,6.62-6.89,9.11-9.89
				c18.18-21.9,42.06-29.16,69.53-27.25c22.09,1.53,41.47,9.21,56.45,26c14.76,16.53,21.83,36.6,23.37,58.21
				C529.55,417.68,526.81,466.76,527.6,515.79z"/>
		</g>
	</g>
</g>
</svg>
